<svg xmlns="http://www.w3.org/2000/svg" xmlns:xlink="http://www.w3.org/1999/xlink" width="28px" height="28px" viewBox="0 0 28 28" version="1.1">
    <!-- Generator: sketchtool 64 (101010) - https://sketch.com -->
    <title>A62B05B8-36D2-42C6-9A58-B69C6692E8F3</title>
    <desc>Created with sketchtool.</desc>
    <g id="Home" stroke="none" stroke-width="1" fill="none" fill-rule="evenodd">
        <g id="Renewal-UI" transform="translate(-154.000000, -104.000000)">
            <g id="Group-61" transform="translate(154.000000, 104.000000)">
                <g id="binh-luan-copy" transform="translate(5.000000, 4.000000)">
                    <g id="Binhluan" transform="translate(0.102581, 0.102581)">
                        <rect id="Rectangle" fill="#000000" x="4.15483871" y="4.90790323" width="7.5" height="1.4904" rx="0.7452"/>
                        <rect id="Rectangle-Copy-4" fill="#000000" x="4.15483871" y="8.17983871" width="7.5" height="1.4904" rx="0.7452"/>
                        <path d="M15.8234641,17.5172567 C15.4778337,18.0799955 14.7010302,18.2788042 14.088425,17.9613083 C13.8861639,17.8564821 13.7189547,17.7028495 13.6048846,17.5170292 L12.6944316,16.0338994 C12.5437082,15.7883708 12.4645161,15.5112655 12.4645161,15.2293898 L12.4645161,5.72779963 C12.4645161,4.82322333 13.2628009,4.08991935 14.247535,4.08991935 L15.1814973,4.08991935 C16.1662314,4.08991935 16.9645161,4.82322333 16.9645161,5.72779963 L16.9645161,15.2292781 C16.9645161,15.5112778 16.8852545,15.7885006 16.7344051,16.0341063 L15.8234641,17.5172567 Z M15.4033412,15.3442536 C15.4248911,15.3091671 15.4362142,15.2695638 15.4362142,15.2292781 L15.4362142,5.72779963 C15.4362142,5.59857444 15.3221736,5.49381673 15.1814973,5.49381673 L14.247535,5.49381673 C14.1068587,5.49381673 13.992818,5.59857444 13.992818,5.72779963 L13.992818,15.2293898 C13.992818,15.2696578 14.0041312,15.3092442 14.0256631,15.3443198 L14.7143021,16.466114 L15.4033412,15.3442536 Z" id="Stroke-1-Copy-4" fill="#FF8A00" fill-rule="nonzero" transform="translate(14.714516, 11.101210) rotate(48.000000) translate(-14.714516, -11.101210) "/>
                        <path d="M16.1594113,14.3116283 C15.322348,16.5722618 13.1988554,18.0986842 10.7939346,18.0986842 L5.48129492,18.0986842 C3.29327834,18.0986842 1.51789705,16.2845286 1.51789705,14.0480263 L1.51789705,5.60197368 C1.51789705,3.36547144 3.29327834,1.55131579 5.48129492,1.55131579 L12.5648145,1.55131579 C13.9526782,1.55131579 15.2159687,2.28469593 15.9355427,3.46698725 C16.1569332,3.83074148 16.6249343,3.94219872 16.9808525,3.71593398 C17.3367707,3.48966923 17.4458269,3.01136435 17.2244364,2.64761012 C16.2306268,1.01473784 14.4826811,0 12.5648145,0 L5.48129492,0 C2.45502561,0 0,2.50864342 0,5.60197368 L0,14.0480263 C0,17.1413566 2.45502561,19.65 5.48129492,19.65 L10.7939346,19.65 C13.8350877,19.65 16.5204234,17.71971 17.5790551,14.8606928 C17.7274089,14.460038 17.5298752,14.0123308 17.1378514,13.8607109 C16.7458276,13.7090909 16.3077651,13.9109735 16.1594113,14.3116283 Z" id="Stroke-1-Copy-16" fill="#000000" fill-rule="nonzero"/>
                    </g>
                </g>
                <rect id="Rectangle-Copy-10" x="4" y="2" width="24" height="24"/>
            </g>
        </g>
    </g>
</svg>