<svg xmlns="http://www.w3.org/2000/svg" xmlns:xlink="http://www.w3.org/1999/xlink" width="40px" height="40px" viewBox="0 0 40 40" version="1.1">
    <!-- Generator: sketchtool 64 (101010) - https://sketch.com -->
    <title>A978912F-F663-4034-8D9B-883B1F4C6C23</title>
    <desc>Created with sketchtool.</desc>
    <g id="Home" stroke="none" stroke-width="1" fill="none" fill-rule="evenodd">
        <g id="Renewal-UI" transform="translate(-568.000000, -734.000000)" fill="#FFFFFF" fill-rule="nonzero">
            <g id="Group-83" transform="translate(568.000000, 734.000000)">
                <path d="M26.25,20 C26.25,23.4517797 23.4517797,26.25 20,26.25 C16.5482203,26.25 13.75,23.4517797 13.75,20 C13.75,19.64375 13.7875,19.2958333 13.8520833,18.9583333 L11.6666667,18.9583333 L11.6666667,27.2854167 C11.6666667,27.8645833 12.1354167,28.3333333 12.7145833,28.3333333 L27.2875,28.3333333 C27.8654346,28.3321844 28.3333333,27.8633524 28.3333333,27.2854167 L28.3333333,18.9583333 L26.1479167,18.9583333 C26.2125,19.2958333 26.25,19.64375 26.25,20 L26.25,20 Z M20,24.1666668 C21.4889788,24.1662945 22.8646534,23.3715899 23.6088205,22.0819104 C24.3529876,20.7922309 24.3525905,19.2035094 23.6077788,17.914202 C22.8629671,16.6248947 21.4868955,15.8308778 19.9979167,15.8312499 C17.6961549,15.8318253 15.8306748,17.6982383 15.8312499,20 C15.8318254,22.3017617 17.6982383,24.1672419 20,24.1666668 Z M25,15.625 L27.4979167,15.625 C27.8434333,15.625 28.1238521,15.3455147 28.125,15 L28.125,12.5020833 C28.125,12.1557548 27.8442452,11.875 27.4979167,11.875 L25,11.875 C24.6536714,11.875 24.3729167,12.1557548 24.3729167,12.5020833 L24.3729167,15 C24.375,15.34375 24.65625,15.625 25,15.625 L25,15.625 Z M20,0 C8.954305,0 0,8.954305 0,20 C0,31.045695 8.954305,40 20,40 C25.3043298,40 30.3914081,37.8928632 34.1421356,34.1421356 C37.8928632,30.3914081 40,25.3043298 40,20 C40,8.954305 31.045695,0 20,0 Z M30.4166667,28.1020833 C30.4166667,29.375 29.375,30.4166667 28.1020833,30.4166667 L11.8979167,30.4166667 C10.625,30.4166667 9.58333333,29.375 9.58333333,28.1020833 L9.58333333,11.8979167 C9.58333333,10.625 10.625,9.58333333 11.8979167,9.58333333 L28.1020833,9.58333333 C29.375,9.58333333 30.4166667,10.625 30.4166667,11.8979167 L30.4166667,28.1020833 L30.4166667,28.1020833 Z" id="Icon-Shape"/>
            </g>
        </g>
    </g>
</svg>