<svg xmlns="http://www.w3.org/2000/svg" xmlns:xlink="http://www.w3.org/1999/xlink" width="40px" height="40px" viewBox="0 0 40 40" version="1.1">
    <!-- Generator: sketchtool 64 (101010) - https://sketch.com -->
    <title>321AFE05-7BE4-4382-ADB7-6B73C1E79F46</title>
    <desc>Created with sketchtool.</desc>
    <g id="Home" stroke="none" stroke-width="1" fill="none" fill-rule="evenodd">
        <g id="Renewal-UI" transform="translate(-620.000000, -734.000000)" fill="#FFFFFF">
            <g id="Group-82" transform="translate(620.000000, 734.000000)">
                <path d="M20,0 C31.045695,0 40,8.954305 40,20 C40,31.045695 31.045695,40 20,40 C8.954305,40 0,31.045695 0,20 C0,8.954305 8.954305,0 20,0 Z M24.0155938,11 C22.986625,11.0095 21.9564688,11 20.920375,11.0160312 C20.896625,14.1979375 20.9126563,17.3804375 20.906125,20.5718437 C20.896625,21.9879375 20.9275,23.3980937 20.8497188,24.8141875 C20.8408125,25.1235312 20.6739688,25.3925 20.5249375,25.6555312 C20.0641875,26.406625 19.2169063,26.919625 18.3328125,26.929125 C16.99925,27.0472812 15.75,25.955375 15.5617813,24.65625 C15.5522813,24.2299375 15.505375,23.7840312 15.66925,23.3826562 C15.8676223,22.8149769 16.247113,22.3282524 16.7492813,21.9974375 C17.4356563,21.5206562 18.3535938,21.4494062 19.139125,21.7035312 C19.139125,20.530875 19.1860313,19.3594062 19.17,18.18675 C17.4505,17.8649375 15.6140313,18.4088125 14.3030313,19.5505937 C13.1464063,20.530875 12.40125,21.9719062 12.25875,23.47825 C12.2444384,23.8708631 12.2476082,24.2639187 12.26825,24.65625 C12.432125,26.50875 13.5572813,28.2347812 15.15625,29.1776562 C16.1210938,29.7464687 17.2521875,30.0552187 18.3844688,29.9905 C20.2304375,29.959625 22.0277188,28.9698437 23.0632188,27.451625 C23.7068438,26.539625 24.072,25.4382187 24.13375,24.3314687 C24.1580938,22.0277187 24.14325,19.7174375 24.1485938,17.4041875 C24.5600625,17.6731562 24.9804375,17.9361875 25.4316875,18.1404375 C26.4677813,18.6320625 27.6149063,18.8695625 28.7566875,18.9069687 L28.7566875,18.9069687 L28.7566875,15.719125 C27.5383125,15.5831562 26.2860938,15.1811875 25.4008125,14.3030312 C24.51375,13.44625 24.0779375,12.2118437 24.0155938,11 Z" id="Combined-Shape"/>
            </g>
        </g>
    </g>
</svg>