<svg xmlns="http://www.w3.org/2000/svg" xmlns:xlink="http://www.w3.org/1999/xlink" width="40px" height="40px" viewBox="0 0 40 40" version="1.1">
    <!-- Generator: sketchtool 64 (101010) - https://sketch.com -->
    <title>C10422C8-ECFE-44F6-A923-76494CB50503</title>
    <desc>Created with sketchtool.</desc>
    <g id="Home" stroke="none" stroke-width="1" fill="none" fill-rule="evenodd">
        <g id="Renewal-UI" transform="translate(-516.000000, -734.000000)" fill="#FFFFFF" fill-rule="nonzero">
            <g id="Group-84" transform="translate(516.000000, 734.000000)">
                <path d="M20,0 C8.95416667,0 0,8.95416667 0,20 C0,31.0458333 8.95416667,40 20,40 C31.0458333,40 40,31.0458333 40,20 C40,8.95416667 31.0458333,0 20,0 Z M24.7375,13.8208333 L21.73125,13.8208333 C21.375,13.8208333 20.9791667,14.2895833 20.9791667,14.9125 L20.9791667,17.0833333 L24.7395833,17.0833333 L24.1708333,20.1791667 L20.9791667,20.1791667 L20.9791667,29.4729167 L17.43125,29.4729167 L17.43125,20.1791667 L14.2125,20.1791667 L14.2125,17.0833333 L17.43125,17.0833333 L17.43125,15.2625 C17.43125,12.65 19.24375,10.5270833 21.73125,10.5270833 L24.7375,10.5270833 L24.7375,13.8208333 L24.7375,13.8208333 Z" id="Icon-Shape"/>
            </g>
        </g>
    </g>
</svg>