<svg xmlns="http://www.w3.org/2000/svg" width="50" height="50" viewBox="0 0 50 50">
    <defs>
        <linearGradient id="a" x1="35.962%" x2="61.389%" y1="4.9%" y2="68.195%">
            <stop offset="0%" stop-color="#E3E3E3"/>
            <stop offset="100%" stop-color="#9D9D9D"/>
        </linearGradient>
        <filter id="b" width="233.3%" height="1300%" x="-66.7%" y="-600%" filterUnits="objectBoundingBox">
            <feGaussianBlur in="SourceGraphic" stdDeviation="2"/>
        </filter>
    </defs>
    <g fill="none" fill-rule="evenodd">
        <path fill="#EEE" d="M0 0h50v50H0z"/>
        <g transform="translate(15 8.8)">
            <path fill="url(#a)" fill-rule="nonzero" d="M9.83 29.397c-1.799 0-4.159-3.047-6.369-7.747C1.434 17.336 0 12.541 0 9.904 0 4.432 4.396 0 9.83 0c5.433 0 9.829 4.432 9.829 9.904 0 2.637-1.434 7.432-3.461 11.746-2.202 4.693-4.563 7.747-6.369 7.747z"/>
            <ellipse cx="10.045" cy="32.092" fill="#B6B6B6" fill-opacity=".453" fill-rule="nonzero" filter="url(#b)" rx="4.5" ry="1"/>
            <path fill="#FFF" d="M9.738 14.184c3.756 0 6.804-1.373 6.804-5.154 0-3.781-3.044-6.846-6.8-6.846-3.755 0-6.8 3.065-6.8 6.846 0 3.78 3.04 5.154 6.796 5.154z"/>
            <ellipse cx="7.445" cy="7.503" fill="#24120A" rx="1" ry="1"/>
            <ellipse cx="12.134" cy="7.503" fill="#24120A" rx="1" ry="1"/>
            <path fill="#E3E3E3" d="M5.774 9.495c-.594 0-1.085-.323-1.085-.717 0-.393.483-.716 1.085-.716.594 0 1.085.323 1.085.716 0 .394-.49.717-1.085.717zm7.937 0c-.595 0-1.086-.323-1.086-.717 0-.393.484-.716 1.086-.716.594 0 1.085.323 1.085.716 0 .394-.491.717-1.085.717z"/>
            <ellipse cx="7.358" cy="7.668" fill="#24120A" rx="1" ry="1"/>
            <ellipse cx="12.047" cy="7.668" fill="#24120A" rx="1" ry="1"/>
            <path fill="#24120A" d="M8.728 9.495h2.02a.25.25 0 0 1 .254.252.25.25 0 0 1-.254.252h-2.02a.25.25 0 0 1-.253-.252c0-.142.119-.252.253-.252z"/>
        </g>
    </g>
</svg>
